<svg xmlns="http://www.w3.org/2000/svg" viewBox="0 0 491.55 49.14"><defs><style>.cls-1{fill:#fff;}</style></defs><g id="Layer_2" data-name="Layer 2"><g id="Layer_1-2" data-name="Layer 1"><path class="cls-1" d="M49,2.35a1.25,1.25,0,0,1-.11.55,3.65,3.65,0,0,1-.35.55L48.15,4a.85.85,0,0,0-.16.47,1.64,1.64,0,0,1,0,.19c0,.09-.06.23-.1.41q-.14.5-.24.81a3.27,3.27,0,0,0-.14.45,11.59,11.59,0,0,0-.38,1.86,15.19,15.19,0,0,0-.11,2c0,1.35-.06,2.72-.17,4.1,0,.7-.09,1.42-.18,2.18s-.16,1.55-.25,2.39-.18,1.64-.26,2.41-.17,1.5-.26,2.21c-.13,1.28-.23,2.6-.29,4s-.1,2.81-.1,4.31q0,1.5.06,3.84c0,1.56.07,3.36.11,5.4a8.39,8.39,0,0,0,1,.82,7.86,7.86,0,0,1,1.11.83,1.29,1.29,0,0,1,.34.92,2.77,2.77,0,0,1-1.1,2,3.31,3.31,0,0,1-2.16,1q-2.76,0-3.69-3.72a30.85,30.85,0,0,1-.95-7.63,18.48,18.48,0,0,1,.16-2.46q.16-1.23.3-2.49c.05-.58.14-1.43.26-2.53l.45-4.11c.18-1.65.32-2.9.41-3.76s.15-1.38.17-1.52,0-.34.06-.63.07-.68.13-1.15c.12-1,.22-1.77.27-2.46s.08-1.24.08-1.64c0-.13,0-.25,0-.36s0-.25,0-.43a1.92,1.92,0,0,0-.28-.72c-.31.42-.67.92-1.09,1.48l-1.42,1.92c-1.08,1.42-1.95,2.59-2.63,3.52-.34.46-.69.91-1,1.37l-1,1.37-1.19,1.57c-.44.59-.94,1.27-1.49,2-1.18,1.64-2.36,3.31-3.52,5-.06.09-.15.23-.28.41l-.49.71c-.4.6-.63.93-.68,1a7.83,7.83,0,0,1-3.53,3,5.76,5.76,0,0,1-3.58-2.41c-.17-.29-.31-.55-.43-.77l-.34-.61L19.22,30l-.35-.62c-.37-.64-.7-1.22-1-1.75s-.55-1-.79-1.42c-.46-.84-.9-1.74-1.34-2.7a32.12,32.12,0,0,1-1.2-3c-.22-.69-.4-1.26-.55-1.71l-.33-1L13.4,17c-.11-.37-.24-.81-.38-1.32s-.31-1-.48-1.56S12.19,13,12,12.47q-.54-1.72-.6-1.86c-.13.51-.3,1.16-.53,1.94s-.47,1.62-.71,2.51-.49,1.77-.73,2.66-.43,1.7-.6,2.41-.35,1.42-.5,2.06S8,23.45,7.88,24c-.32,1.13-.78,2.91-1.4,5.33a17.88,17.88,0,0,0-.6,4.54c0,.31,0,.72.08,1.24s.15,1.16.27,1.9.22,1.39.28,2,.08,1.1.08,1.53a3.39,3.39,0,0,1-.74,1.78c-.49.69-1,1-1.45,1-.16,0-.41,0-.74,0a6.59,6.59,0,0,0-.76-.06A2.36,2.36,0,0,1,.68,41.43,10.67,10.67,0,0,1,0,37.66,7.21,7.21,0,0,1,.27,36L.6,34.72,1,33c.18-.64.32-1.14.41-1.5s.14-.59.16-.66c.4-1.55.77-2.94,1.1-4.17s.62-2.32.87-3.27.52-1.93.8-3,.56-2.11.87-3.26c.36-1.32.68-2.42.94-3.33s.48-1.79.65-2.66.25-1.68.32-2a9.83,9.83,0,0,1,.39-1.4c.16-.47.34-1,.54-1.42.4-1,.91-1.48,1.53-1.48a10.8,10.8,0,0,1,3.23.39,3.41,3.41,0,0,1,2,1.77,11,11,0,0,1,.66,1.27,11.58,11.58,0,0,1,.46,1.33c.13.44.27.94.41,1.52s.29,1.22.44,2a5.35,5.35,0,0,0,.33,1.12c.14.37.3.78.46,1.23A52.83,52.83,0,0,0,23.9,28.19a9,9,0,0,1,.87-.65l.62-.49a3.37,3.37,0,0,0,.42-.44c.26-.31.52-.66.8-1.05s.53-.83.79-1.3l1.54-2.66a13.73,13.73,0,0,1,1.63-2.21c.29-.31.63-.71,1-1.19s.84-1.05,1.35-1.71,1-1.23,1.35-1.72l1-1.2c.31-.35.6-.69.86-1s.52-.64.76-1l.8-1.07,1-1.34.79-1c.19-.22.35-.41.48-.58l.34-.46c.33-.45.69-1,1.08-1.55s.82-1.26,1.28-2,.89-1.42,1.25-2,.68-1,.93-1.38A.63.63,0,0,1,45.42,0a2.52,2.52,0,0,1,1,.22,7.78,7.78,0,0,1,1.22.62,5,5,0,0,1,1,.78C48.92,1.89,49,2.14,49,2.35Z"/><path class="cls-1" d="M81.34,36.45a3.61,3.61,0,0,1-.17,1,4.75,4.75,0,0,1-.56,1.13,10.61,10.61,0,0,1-1.3,1.74,11.63,11.63,0,0,1-1.81,1.61,9.51,9.51,0,0,1-2.17,1.19,6.62,6.62,0,0,1-2.44.47,5.3,5.3,0,0,1-2.83-.74,6.87,6.87,0,0,1-2-2,12.4,12.4,0,0,1-1.42-3,27.14,27.14,0,0,1-.91-3.58,27.78,27.78,0,0,1-2.86,3.47,31.83,31.83,0,0,1-3.42,3.11,20.89,20.89,0,0,1-3.47,2.24,7,7,0,0,1-3,.86,3.41,3.41,0,0,1-1.69-.44,4.93,4.93,0,0,1-1.42-1.17,5.79,5.79,0,0,1-1-1.7,5.87,5.87,0,0,1-.35-2,15.09,15.09,0,0,1,.78-4.77c.28-.9.64-1.88,1.09-2.94s1-2.22,1.65-3.47a24.59,24.59,0,0,1,2.6-4,29.41,29.41,0,0,1,3.06-3.33,17.55,17.55,0,0,1,3-2.27A4.85,4.85,0,0,1,62.91,17a1.73,1.73,0,0,1,.56.11l.66.23c.23.09.45.16.66.22a1.68,1.68,0,0,0,.53.1,1,1,0,0,0,.44-.1,3.61,3.61,0,0,0,.44-.22l.43-.23a1,1,0,0,1,.44-.11,1.49,1.49,0,0,1,.71.22,3.8,3.8,0,0,1,.74.56,4,4,0,0,1,.63.78,3.14,3.14,0,0,1,.38.85,1.75,1.75,0,0,0,.29.72c.12.16.24.3.35.43a1.77,1.77,0,0,1,.3.45,1.83,1.83,0,0,1,.13.81,7.86,7.86,0,0,1-.19,1.14c-.13.59-.27,1.27-.43,2s-.29,1.58-.42,2.42a15.13,15.13,0,0,0-.19,2.3,28.23,28.23,0,0,0,.33,4.78,10,10,0,0,0,.9,2.94A3.37,3.37,0,0,0,72,38.91a3.43,3.43,0,0,0,1.66.41,7.09,7.09,0,0,0,3.4-.71,7.28,7.28,0,0,0,2.37-2.1q.3-.39.51-.69a.61.61,0,0,1,.44-.3,1,1,0,0,1,.7.3A.87.87,0,0,1,81.34,36.45ZM66.06,24.26a5.44,5.44,0,0,0-.62-3,1.73,1.73,0,0,0-1.4-.9,4.06,4.06,0,0,0-1.39.26,6.83,6.83,0,0,0-1.32.67,8.63,8.63,0,0,0-1.15.9,6.51,6.51,0,0,0-.85,1c-.44.58-.9,1.25-1.38,2s-1,1.53-1.45,2.35-.94,1.66-1.38,2.51S54.3,31.74,54,32.56a18.45,18.45,0,0,0-.81,2.32,7.69,7.69,0,0,0-.3,2,3.91,3.91,0,0,0,.49,2.07,2,2,0,0,0,1.86.78,3,3,0,0,0,1.37-.59,17.77,17.77,0,0,0,1.93-1.49c.68-.6,1.35-1.26,2-2a15.55,15.55,0,0,0,1.61-2c.46-.67.92-1.41,1.38-2.21A26,26,0,0,0,64.77,29a16.81,16.81,0,0,0,.93-2.48A8,8,0,0,0,66.06,24.26Z"/><path class="cls-1" d="M126,13.46a.61.61,0,0,1,.52.35,1.26,1.26,0,0,1,.22.66,2.48,2.48,0,0,1-.4,1.21,6.64,6.64,0,0,1-1.08,1.41,10.64,10.64,0,0,1-1.61,1.38,11.08,11.08,0,0,1-2,1.14q-1.5.66-3.33,1.26c-1.23.4-2.52.75-3.87,1.06s-2.78.58-4.24.81-2.94.4-4.42.5c-.09,0-.19.18-.29.52s-.2.79-.31,1.32-.21,1.11-.31,1.76-.2,1.28-.29,1.89-.17,1.16-.25,1.65-.13.85-.16,1.07c-.17,1-.31,1.85-.43,2.61s-.21,1.47-.3,2.13-.15,1.31-.2,1.93-.09,1.28-.11,2c0,.38,0,.72,0,1s0,.6,0,.89,0,.59,0,.89,0,.64-.07,1a1.15,1.15,0,0,1-.34.46A6.46,6.46,0,0,1,102,45a9,9,0,0,1-.81.51,1.45,1.45,0,0,1-.56.21,1.5,1.5,0,0,1-1.12-.45,3.31,3.31,0,0,1-.68-1,4.69,4.69,0,0,1-.33-1.12,7.26,7.26,0,0,1-.08-.74A25.88,25.88,0,0,1,98.8,38c.26-1.46.54-2.9.85-4.31s.59-2.79.85-4.12a20.83,20.83,0,0,0,.38-3.85c0-.11,0-.23,0-.36a.81.81,0,0,0-.14-.37,1.17,1.17,0,0,0-.37-.31,2.49,2.49,0,0,0-.71-.22c-1,.16-2,.3-3.05.4l-2.72.26c-1.55.14-3,.26-4.32.34a11.84,11.84,0,0,0-3.28.59c-.38,1.66-.82,3.32-1.3,5s-.87,3.26-1.16,4.76c-.08.34-.17.86-.29,1.56s-.23,1.41-.34,2.17S83,41,82.9,41.63a13.88,13.88,0,0,0-.12,1.44,3.24,3.24,0,0,0,.35,1.68,3.69,3.69,0,0,0,.78.9c.29.23.54.44.78.65a1.1,1.1,0,0,1,.36.9,1.07,1.07,0,0,1-.37.74,4.39,4.39,0,0,1-.89.63,5.29,5.29,0,0,1-1.11.42,4.19,4.19,0,0,1-1,.15,2.42,2.42,0,0,1-1.42-.44,3.86,3.86,0,0,1-1.07-1.13,5.94,5.94,0,0,1-.68-1.6,6.79,6.79,0,0,1-.25-1.86,17.51,17.51,0,0,1,.22-2.7c.14-.95.33-1.93.54-2.93s.46-2,.7-3.08.48-2.09.7-3.13c.09-.44.2-1,.31-1.57s.24-1.21.35-1.78.2-1.07.27-1.49.11-.66.11-.71a.78.78,0,0,0-.32-.67,1.19,1.19,0,0,0-.75-.23h-1l-1.49,0H75.37a8.84,8.84,0,0,1-1.67-.13,2.45,2.45,0,0,1-1.11-.45A2,2,0,0,1,72,24.3a4.91,4.91,0,0,1-.2-1.52.68.68,0,0,1,.35-.6,2.63,2.63,0,0,1,.87-.32,7,7,0,0,1,1.08-.11h4l1.8,0h1.2l.39,0a1.49,1.49,0,0,0,.45-.15,1.35,1.35,0,0,0,.42-.41,2.71,2.71,0,0,0,.33-.81c.25-1.15.56-2.36.93-3.62s.67-2.44.93-3.52A16.3,16.3,0,0,0,85,11.54c.12-.58.23-1.16.33-1.75s.21-1.15.34-1.69a8.91,8.91,0,0,1,.49-1.51,2,2,0,0,1,2-1.42c1.34,0,2,.75,2,2.24a10.29,10.29,0,0,1-.6,3.2c-.86,2.75-1.45,5-1.78,6.58a20.31,20.31,0,0,0-.49,3.38.89.89,0,0,0,1,1h.94l.89,0c1.39-.14,2.67-.29,3.86-.45s2.23-.3,3.13-.45,1.64-.28,2.23-.39,1-.22,1.2-.29a1.58,1.58,0,0,0,.63-.52,6.1,6.1,0,0,0,.7-1.11,15.41,15.41,0,0,0,.67-1.57,18.58,18.58,0,0,0,.57-1.94c.07-.31.16-.75.27-1.31l.36-1.89c.13-.69.25-1.41.38-2.15s.25-1.44.36-2.1.19-1.26.26-1.78.1-.91.12-1.16a2.6,2.6,0,0,1,.16-.93,2.55,2.55,0,0,1,.46-.78,2.05,2.05,0,0,1,.71-.55,2.13,2.13,0,0,1,1-.2,1.37,1.37,0,0,1,.79.27,3.39,3.39,0,0,1,.67.64,3.73,3.73,0,0,1,.45.75,1.64,1.64,0,0,1,.16.58c0,.09,0,.29-.06.61l-.18,1.17c-.07.45-.16.94-.26,1.47s-.19,1-.27,1.51-.16.89-.24,1.27-.12.63-.16.78c-.26,1.11-.47,2-.64,2.76s-.31,1.34-.41,1.83-.18.89-.22,1.19a4.93,4.93,0,0,0-.07.81,1.48,1.48,0,0,0,.16.84.7.7,0,0,0,.55.25l.88-.08,2-.25c.79-.11,1.67-.24,2.64-.41s1.94-.35,2.92-.56,1.94-.44,2.85-.7a15.92,15.92,0,0,0,2.38-.84c.65-.31,1.26-.61,1.82-.91l1.47-.79c.43-.24.79-.42,1.07-.56A1.59,1.59,0,0,1,126,13.46Z"/><path class="cls-1" d="M162.35,31.23c0,.2,0,.44,0,.71a4.57,4.57,0,0,1-.17.85,4.16,4.16,0,0,1-.34.86,2.9,2.9,0,0,1-.55.75,32.07,32.07,0,0,1-3.4,2.83,26.86,26.86,0,0,1-3.51,2.16,20.75,20.75,0,0,1-3.42,1.38,11,11,0,0,1-3.12.49,6.66,6.66,0,0,1-3.32-.75,6,6,0,0,1-2.12-2,8.05,8.05,0,0,1-1.12-2.79,15.47,15.47,0,0,1-.33-3.21c0-.36,0-.79,0-1.27s.06-1,.1-1.5.07-1,.09-1.52,0-.94,0-1.34a7.68,7.68,0,0,0-.12-1.46,1.39,1.39,0,0,0-.45-.87,6.58,6.58,0,0,0-1.42,1.18A22.88,22.88,0,0,0,137.32,28q-1,1.34-2.19,3.09t-2.34,3.77l-1.53,2.62c-.53.92-1,1.8-1.57,2.67s-1,1.69-1.55,2.47-1,1.48-1.45,2.07a10.29,10.29,0,0,1-1.26,1.41,1.64,1.64,0,0,1-1,.52,3,3,0,0,1-.81-.09,4.63,4.63,0,0,1-.55-.16l-.41-.16a.78.78,0,0,0-.37-.09,11.08,11.08,0,0,1-.32-1.83c-.08-.71-.13-1.42-.17-2.14s-.06-1.39-.07-2,0-1.07,0-1.38A60.1,60.1,0,0,1,122.3,31c.36-2.7.78-5.53,1.28-8.49s1-6.06,1.53-9.3,1-6.62,1.31-10.16a3.65,3.65,0,0,1,.49-1.26,2.83,2.83,0,0,1,.74-.76,2.48,2.48,0,0,1,.82-.37,3.52,3.52,0,0,1,.74-.1,1.5,1.5,0,0,1,1.31.85A4.5,4.5,0,0,1,131,3.72a11.53,11.53,0,0,1-.09,1.18c-.07.53-.16,1.12-.28,1.79s-.24,1.37-.38,2.13-.28,1.51-.44,2.26-.3,1.46-.43,2.14-.26,1.27-.37,1.77q-.66,3-1.19,6c-.36,2-.67,3.94-.93,5.71s-.47,3.37-.62,4.76-.22,2.44-.22,3.13v.77c0,.33,0,.66,0,1s0,.67,0,1a2.81,2.81,0,0,0,.08.62,11.26,11.26,0,0,0,2-2c.62-.78,1.27-1.68,1.94-2.69s1.38-2.11,2.14-3.31,1.63-2.45,2.6-3.78c.51-.73,1.12-1.52,1.82-2.36a23.6,23.6,0,0,1,2.25-2.33,13.65,13.65,0,0,1,2.53-1.8,5.63,5.63,0,0,1,2.64-.71c.4,0,.73.34,1,1a7.67,7.67,0,0,1,.37,2.62A11.12,11.12,0,0,1,145.3,24c-.08.59-.17,1.25-.26,2s-.18,1.46-.26,2.22a20.75,20.75,0,0,0-.12,2.14c0,.53,0,1.16.09,1.9a8,8,0,0,0,.49,2.12,4.6,4.6,0,0,0,1.18,1.72,3.12,3.12,0,0,0,2.17.71,14.87,14.87,0,0,0,5.2-1.09,25.18,25.18,0,0,0,6.12-3.53,8,8,0,0,0,.62-.51l.52-.48c.15-.14.3-.26.42-.36a.58.58,0,0,1,.3-.15s.06,0,.13.08l.19.17.18.2C162.32,31.17,162.35,31.21,162.35,31.23Z"/><path class="cls-1" d="M192.89,24.31a3.49,3.49,0,0,1-.6,1.45,39,39,0,0,1-2.72,3.77c-1.09,1.35-2.29,2.71-3.61,4.06s-2.73,2.67-4.21,3.93a39.62,39.62,0,0,1-4.53,3.32,26.65,26.65,0,0,1-4.54,2.31,11.77,11.77,0,0,1-4.26.88h-.19c-3.12,0-5.45-.9-7-2.68s-2.33-4.28-2.33-7.47a29.3,29.3,0,0,1,.3-4.05,23.74,23.74,0,0,1,1.06-4.33,23.47,23.47,0,0,1,2.05-4.4,22,22,0,0,1,3.29-4.25,11.4,11.4,0,0,1,3.17-2.31,7.25,7.25,0,0,1,3.15-.81,2.15,2.15,0,0,1,.57.11,4.81,4.81,0,0,1,.73.29,4.07,4.07,0,0,1,.71.43,4,4,0,0,1,.59.56A8,8,0,0,1,175.64,17a5.87,5.87,0,0,1,.35,2.11,9,9,0,0,1-.43,2.88,11.27,11.27,0,0,1-1.26,2.53,17,17,0,0,1-2,2.47q-1.2,1.24-2.76,2.7c-.34.33-.75.69-1.23,1.09s-1,.82-1.53,1.26l-1.69,1.37-1.73,1.39c.15,3.26,2,4.9,5.44,4.9A14.49,14.49,0,0,0,175,38.17a19,19,0,0,0,3-1.76c.93-.66,1.84-1.34,2.74-2,.43-.34.92-.75,1.45-1.23s1.07-1,1.62-1.5l1.67-1.59c.56-.52,1.08-1,1.57-1.5l1-1,1.14-1.13L190.62,25a3.87,3.87,0,0,1,1.94-1.18C192.78,23.79,192.89,24,192.89,24.31Zm-21-4.1a2.43,2.43,0,0,0-.44-1.44,1.28,1.28,0,0,0-1.07-.61,2.81,2.81,0,0,0-1.19.38,5.59,5.59,0,0,0-1.54,1.37,19.3,19.3,0,0,0-2.85,4.88,25.64,25.64,0,0,0-1.64,6.36c1.15-.93,2.12-1.76,2.92-2.49s1.5-1.41,2.14-2.05c.44-.44.87-.9,1.3-1.4a14.73,14.73,0,0,0,1.18-1.55,9.36,9.36,0,0,0,.86-1.7A4.93,4.93,0,0,0,171.84,20.21Z"/><path class="cls-1" d="M229,22.56c-.57.84-1.07,1.63-1.51,2.38s-.83,1.5-1.2,2.27-.71,1.57-1.05,2.42-.7,1.79-1.08,2.83c-.29.82-.6,1.72-.92,2.71s-.64,2-1,3-.63,2-1,2.91-.64,1.77-.95,2.49a11.88,11.88,0,0,1-.88,1.73q-.44.66-.81.66a6.61,6.61,0,0,1-2.61-.48,5.22,5.22,0,0,1-2-1.52,12.61,12.61,0,0,1-1.92-3c-.54-1.17-1.05-2.39-1.51-3.63s-.92-2.47-1.34-3.64a18.72,18.72,0,0,0-1.38-3,1.59,1.59,0,0,0-.76.63,9.83,9.83,0,0,0-.87,1.38c-.3.55-.62,1.17-.94,1.86s-.65,1.36-.95,2-.59,1.3-.87,1.91-.54,1.12-.75,1.52q-2.25,4.15-3.7,6.28c-1,1.41-1.74,2.12-2.32,2.12a2.43,2.43,0,0,1-1.68-.76,8.1,8.1,0,0,1-1.53-2.05,21,21,0,0,1-1.38-3c-.44-1.15-.84-2.37-1.21-3.66s-.7-2.63-1-4-.58-2.7-.82-4q-.24-1.53-.42-3.24a28.92,28.92,0,0,1-.18-3,8.15,8.15,0,0,1,.07-1.2,1.62,1.62,0,0,1,.2-.69c.31-.42.56-.77.75-1.06a4.09,4.09,0,0,1,.57-.71,1.72,1.72,0,0,1,.58-.41,2.72,2.72,0,0,1,.84-.2h.16a1.57,1.57,0,0,1,.83.24,2.76,2.76,0,0,1,.7.62,3.15,3.15,0,0,1,.48.78,1.85,1.85,0,0,1,.18.74v.1c-.06.59-.11,1.11-.17,1.58s-.1,1-.15,1.54-.08,1.23-.12,2,0,1.72,0,2.89a8.44,8.44,0,0,0,.2,1.65c.14.69.32,1.42.53,2.19s.47,1.56.76,2.35.57,1.51.86,2.15a9.86,9.86,0,0,0,.85,1.56c.27.4.52.6.73.6s.44-.22.77-.67a18.46,18.46,0,0,0,1.13-1.78c.43-.74.9-1.58,1.4-2.54l1.53-2.95c.52-1,1-2,1.56-3s1-1.88,1.49-2.68c.24-.42.5-.9.79-1.45s.61-1.1.95-1.67A14.79,14.79,0,0,1,208,23a6.54,6.54,0,0,1,1.2-1.25,2.38,2.38,0,0,1,.9.22,1.84,1.84,0,0,1,.62.55,1.73,1.73,0,0,1,.28,1.06v.3a1.26,1.26,0,0,1-.05.33,6,6,0,0,0-.08,1.07,13.06,13.06,0,0,0,.47,3.44,30.46,30.46,0,0,0,1.33,3.94c.33.8.7,1.63,1.12,2.48s.85,1.61,1.29,2.31a11.15,11.15,0,0,0,1.3,1.72,1.72,1.72,0,0,0,1.13.68,28.27,28.27,0,0,0,1.45-4c.38-1.35.82-2.78,1.31-4.26a48.84,48.84,0,0,1,1.85-4.7,33.58,33.58,0,0,1,3-5.3,4.3,4.3,0,0,1,.53-.61,4.75,4.75,0,0,1,.77-.62,6,6,0,0,1,.87-.46,2.16,2.16,0,0,1,.86-.19.86.86,0,0,1,.81.5,2.52,2.52,0,0,1,.26,1.14A2.09,2.09,0,0,1,229,22.56Z"/><path class="cls-1" d="M304.38,3.9a38.85,38.85,0,0,0-1.91,5.85c-2.75,11.46-.65,26.17,5.09,29.36a8.22,8.22,0,0,1,3.77,3.64c0,.1,1,2.31.29,3-.48.45-1.86.41-6.06-2.41a27.12,27.12,0,0,1-9.23-14.88,27,27,0,0,1,1.33-15.92c-4.55,6.2-9.09,12-13.4,18.27-1.21,1.93-3.32,4.73-5,5.08-7.81-3.84-9.58-16.27-12.49-23.73C265,20.31,261.49,28,261.34,36.7c.23,2.58,1.89,7.14-1.55,8.22-8.27-.35-2.46-12-1.7-16.72,1.65-6.29,3.56-12.71,4.84-18.91.52-4,5.68-3.61,7.27-.74,2.78,7.28,4.11,14.44,9.08,21.19,2.34-1.36,3.72-4.35,5.05-6.59,3.52-4.79,7.4-9.21,11-14C298,6.35,300.29-2.5,304.38,3.9Z"/><path class="cls-1" d="M332.8,34.85a2.62,2.62,0,0,1-.71,1.78q-.73.82-1.29,1.38l-1,1c-.33.31-.68.6-1,.88s-.8.61-1.29,1a35.34,35.34,0,0,1-4,2.53,26.11,26.11,0,0,1-3.67,1.67,18.58,18.58,0,0,1-3.51.92,22.69,22.69,0,0,1-3.49.27,7.41,7.41,0,0,1-3.28-.7,7,7,0,0,1-2.45-1.9,8.31,8.31,0,0,1-1.51-2.8,10.77,10.77,0,0,1-.52-3.38v-.13a17.16,17.16,0,0,1,.46-3.84,25.81,25.81,0,0,1,1.3-4.09,31.64,31.64,0,0,1,2-4,28.83,28.83,0,0,1,2.6-3.7,17.88,17.88,0,0,1,1.38-1.46,15.8,15.8,0,0,1,1.72-1.44,9.61,9.61,0,0,1,1.92-1.08,5,5,0,0,1,1.95-.42,2.28,2.28,0,0,1,1.26.39,5.37,5.37,0,0,1,1.12,1,10.87,10.87,0,0,1,1,1.41,11.77,11.77,0,0,1,.73,1.58,12.21,12.21,0,0,1,.47,1.55,5.85,5.85,0,0,1,.16,1.26,5.94,5.94,0,0,1-.49,2.05c-.33.84-.72,1.25-1.17,1.25-.66,0-1.21-.44-1.65-1.34a7,7,0,0,1-.42-1.2c-.12-.45-.26-.9-.41-1.34a5.36,5.36,0,0,0-.61-1.22,2.34,2.34,0,0,0-1.07-.83,3.64,3.64,0,0,0-1.38.71,9.55,9.55,0,0,0-1.37,1.34,17.65,17.65,0,0,0-1.31,1.79c-.43.67-.84,1.36-1.22,2.07a20.78,20.78,0,0,0-1.06,2.25c-.35.85-.66,1.73-.93,2.63a22.42,22.42,0,0,0-.66,2.69,14.14,14.14,0,0,0-.25,2.46,3.66,3.66,0,0,0,.39,1.6,5.38,5.38,0,0,0,1,1.46,5.16,5.16,0,0,0,1.4,1.07,3.43,3.43,0,0,0,1.6.41,20.55,20.55,0,0,0,8-1.67,27.6,27.6,0,0,0,7.6-4.84c1.33-1.16,2.43-1.75,3.31-1.75C332.67,34.11,332.8,34.36,332.8,34.85Z"/><path class="cls-1" d="M373.43,28.54c0,1.13-.78,2.52-2.32,4.18-.39.42-.86.88-1.41,1.39s-1.15,1-1.77,1.55l-1.87,1.54-1.76,1.4c-1.75,1.35-3.59,2.62-5.5,3.83A53.26,53.26,0,0,1,353,45.6a36.57,36.57,0,0,1-5.83,2.16,21.38,21.38,0,0,1-5.62.79,14.05,14.05,0,0,1-5.14-.85,9.46,9.46,0,0,1-3.63-2.4,10.1,10.1,0,0,1-2.14-3.76,15.78,15.78,0,0,1-.71-4.91,23.24,23.24,0,0,1,.5-5,32,32,0,0,1,1.49-5,33.42,33.42,0,0,1,2.3-4.74,34.35,34.35,0,0,1,2.92-4.23c.64-.78,1.36-1.58,2.16-2.39s1.65-1.6,2.53-2.37,1.79-1.48,2.7-2.14A31.65,31.65,0,0,1,347.21,9c.56-.32,1.28-.71,2.16-1.14s1.79-.85,2.76-1.23a27.8,27.8,0,0,1,2.87-1,9.53,9.53,0,0,1,2.46-.39,12.64,12.64,0,0,1,2.67.23,5.11,5.11,0,0,1,1.76.78,5.35,5.35,0,0,1,.83.83,13.06,13.06,0,0,1,.91,1.23,10.25,10.25,0,0,1,.71,1.34,3,3,0,0,1,.28,1.14,3.7,3.7,0,0,1-.43,1.39c-.29.62-.63,1.27-1,1.93S362.41,15.4,362,16a11.43,11.43,0,0,1-.88,1.19,3.25,3.25,0,0,1-2.4,1.23,2.19,2.19,0,0,1-1.71-.67,2.4,2.4,0,0,1-.62-1.68,2.76,2.76,0,0,1,.41-1.11,8.2,8.2,0,0,1,1.37-1.71,11.35,11.35,0,0,0,1.49-1.76c.35-.54.58-.9.67-1.08a4.13,4.13,0,0,0-1.34-.6,5.42,5.42,0,0,0-1.48-.22,8.54,8.54,0,0,0-2.43.45,23.58,23.58,0,0,0-3,1.16c-1,.48-2,1-2.95,1.57a22.26,22.26,0,0,0-2.42,1.66,47.36,47.36,0,0,0-5.2,5,25.74,25.74,0,0,0-3.93,5.94c-.42.89-.82,1.82-1.19,2.8a27.84,27.84,0,0,0-1,3,27.13,27.13,0,0,0-.65,3A19.19,19.19,0,0,0,334.6,37a11.47,11.47,0,0,0,.37,3,6.11,6.11,0,0,0,1.22,2.41A5.69,5.69,0,0,0,338.42,44a8.92,8.92,0,0,0,3.4.57,17.65,17.65,0,0,0,4.48-.6,28.19,28.19,0,0,0,4.58-1.63A42.42,42.42,0,0,0,355.41,40c1.49-.88,2.93-1.81,4.31-2.77s2.68-1.94,3.92-2.9S366,32.4,367,31.54c.42-.34.86-.73,1.33-1.15l1.38-1.25c.45-.42.9-.84,1.32-1.26s.81-.8,1.14-1.15A2,2,0,0,1,373.43,28.54Z"/><path class="cls-1" d="M406.83,22c0,1.06-.67,2-2,2.9a14.55,14.55,0,0,1-2,1.08c-.77.33-1.56.64-2.37.91s-1.62.51-2.42.7a20.14,20.14,0,0,1-2.18.4c-.32,0-1.36.09-3.15.16a11.76,11.76,0,0,0-2.9.3,2.87,2.87,0,0,0-.68,1.53c0,.18-.07.37-.1.56s-.05.44-.07.75,0,.7,0,1.17,0,1,0,1.76a9.17,9.17,0,0,1-.12,1.42c-.09.51-.2,1-.34,1.52a10.55,10.55,0,0,1-.55,1.45,6.81,6.81,0,0,1-.74,1.22,11.53,11.53,0,0,1-1.57,1.69,23.84,23.84,0,0,1-2.07,1.66,25.42,25.42,0,0,1-2.38,1.51A20.15,20.15,0,0,1,378.58,46a17.64,17.64,0,0,1-2.49.82,9.61,9.61,0,0,1-2.29.3,6.61,6.61,0,0,1-3-.62,5,5,0,0,1-1.9-1.7,7.1,7.1,0,0,1-1-2.49,15.44,15.44,0,0,1-.28-3A13,13,0,0,1,368,36a21.73,21.73,0,0,1,1-3c.41-1,.86-2,1.36-3s1-2,1.49-2.94c.48-.79.91-1.54,1.3-2.25s.79-1.37,1.18-2a13.17,13.17,0,0,1,1.24-1.67,6.47,6.47,0,0,1,1.56-1.27,7.31,7.31,0,0,1,2.11-.82,12.57,12.57,0,0,1,2.87-.29,4,4,0,0,1,1.3.19,3.6,3.6,0,0,1,1,.55,5.9,5.9,0,0,1,.89.85c.28.32.59.69.92,1.09s.68.84.94,1.15.48.55.64.71a3.19,3.19,0,0,0,1.34.67,10,10,0,0,0,2.33.2c1.33,0,2.4,0,3.22-.08s1.57-.13,2.25-.24,1.46-.27,2.1-.41,1.27-.3,1.9-.47,1.27-.34,1.93-.53,1.37-.42,2.13-.67a4.69,4.69,0,0,1,1.29-.17Q406.83,21.64,406.83,22ZM385.07,29a6.3,6.3,0,0,0-.16-1.62,2.53,2.53,0,0,0-.44-.87c-.19-.21-.39-.43-.63-.65a4.18,4.18,0,0,1-.74-1,6.65,6.65,0,0,0-.72-1.12,1.38,1.38,0,0,0-1.08-.36,5,5,0,0,0-3.67,1.92A16.74,16.74,0,0,0,376,27.4a20.66,20.66,0,0,0-1.47,2.69c-.37.77-.72,1.6-1.07,2.51s-.66,1.81-.93,2.74-.5,1.85-.67,2.75a13.75,13.75,0,0,0-.26,2.53,2.17,2.17,0,0,0,.22,1,2.33,2.33,0,0,0,.66.82,3.3,3.3,0,0,0,1.05.57,4.17,4.17,0,0,0,1.43.22,4.5,4.5,0,0,0,1.52-.35,16.53,16.53,0,0,0,1.88-.88,18.64,18.64,0,0,0,1.79-1.11,11.21,11.21,0,0,0,1.3-1.05,19.5,19.5,0,0,0,2-2.54,9.49,9.49,0,0,0,1.09-2.34,11.47,11.47,0,0,0,.44-2.6C385,31.38,385.07,30.27,385.07,29Z"/><path class="cls-1" d="M424.85,33.92a58.71,58.71,0,0,1-4.45,5.5,38.79,38.79,0,0,1-4.45,4.2,21.72,21.72,0,0,1-4.3,2.69,9.36,9.36,0,0,1-3.89,1,5.26,5.26,0,0,1-4.61-2.52q-1.68-2.52-1.68-7.41,0-2.73.33-6c.22-2.18.5-4.4.84-6.64s.74-4.45,1.17-6.62.86-4.14,1.3-5.93c.32-1.37.66-2.55,1-3.56a13.2,13.2,0,0,1,1.08-2.46,4.67,4.67,0,0,1,1.25-1.42A2.58,2.58,0,0,1,410,4.23a2.07,2.07,0,0,1,1,.24,3,3,0,0,1,.78.63,2.79,2.79,0,0,1,.51.89,3.06,3.06,0,0,1,.18,1,4.85,4.85,0,0,1-.26,1.32c-.18.56-.4,1.17-.66,1.85s-.55,1.38-.86,2.13l-.9,2.15c-.3.68-.56,1.31-.78,1.9a11.3,11.3,0,0,0-.48,1.42c-.27,1.18-.55,2.57-.82,4.14s-.53,3.21-.75,4.9-.42,3.36-.56,5-.22,3.19-.22,4.58a11.53,11.53,0,0,0,.33,3,5.74,5.74,0,0,0,.83,1.89,3.09,3.09,0,0,0,1.09,1,2.55,2.55,0,0,0,1.11.29,5.27,5.27,0,0,0,2.11-.51A14.57,14.57,0,0,0,414,40.7a28.38,28.38,0,0,0,2.62-2.12c.9-.81,1.81-1.69,2.72-2.63s1.82-2,2.71-3,1.75-2.11,2.57-3.18c.31-.42.55-.74.74-1a.72.72,0,0,1,.52-.33.48.48,0,0,1,.45.34,2.26,2.26,0,0,1,.15.89,4,4,0,0,1-.14,1,10.68,10.68,0,0,1-.35,1.1,10,10,0,0,1-.52,1.1C425.28,33.25,425.07,33.59,424.85,33.92Z"/><path class="cls-1" d="M479.43,32.53a3.45,3.45,0,0,1-.14.76,9.24,9.24,0,0,1-.4,1.19c-.17.45-.37.92-.6,1.42a15,15,0,0,1-.75,1.44,24.8,24.8,0,0,1-1.71,2.5,11.26,11.26,0,0,1-1.89,1.94A7.89,7.89,0,0,1,471.77,43a7.2,7.2,0,0,1-2.6.45,4.5,4.5,0,0,1-2.27-.63,7.16,7.16,0,0,1-2-1.76,12.38,12.38,0,0,1-1.62-2.71,17.32,17.32,0,0,1-1.13-3.48c-.21-1-.4-2-.56-2.9s-.32-1.75-.49-2.46a7.52,7.52,0,0,0-.59-1.7.94.94,0,0,0-.82-.63,2,2,0,0,0-1.21.51A8,8,0,0,0,457,29.34a27,27,0,0,0-1.76,2.89q-1,1.77-2.2,4.29c-.66,1.35-1.25,2.5-1.77,3.44a19.56,19.56,0,0,1-1.46,2.32,5.78,5.78,0,0,1-1.29,1.29,2.11,2.11,0,0,1-1.23.41,2.38,2.38,0,0,1-.93-.19,3.39,3.39,0,0,1-.86-.5,4.1,4.1,0,0,1-.71-.73,3.14,3.14,0,0,1-.48-.85,13.18,13.18,0,0,1-.5-2.44c-.14-1-.28-2.25-.43-3.65s-.27-2.4-.38-3.3-.23-1.67-.37-2.31a10,10,0,0,0-.46-1.61,5.38,5.38,0,0,0-.67-1.2c-.64,0-1.58.79-2.82,2.26a44.11,44.11,0,0,0-3.32,4.48c-1,1.48-1.87,3-2.75,4.44l-.87,1.5-1,1.71c-.34.58-.67,1.12-1,1.63s-.59.93-.83,1.26a1.39,1.39,0,0,1-.67.5,8,8,0,0,1-1,.36,8.33,8.33,0,0,1-1.06.22c-.34,0-.61.07-.79.07a.92.92,0,0,1-.75-.46,3.77,3.77,0,0,1-.51-1.25,14.09,14.09,0,0,1-.28-1.93c-.07-.75-.1-1.57-.1-2.46a28.55,28.55,0,0,1,.17-2.87c.1-1.08.24-2.18.39-3.31s.33-2.25.51-3.35.34-2.09.49-3c.2-1.2.36-2.23.46-3.09a17.4,17.4,0,0,0,.17-2.13,1.68,1.68,0,0,1,.38-1.11,1.33,1.33,0,0,1,1.07-.45q2.73,0,2.73,3.75a17,17,0,0,1-.13,2c-.1.75-.21,1.54-.35,2.36s-.28,1.68-.43,2.55-.31,1.72-.47,2.55-.29,1.65-.4,2.44-.18,1.49-.21,2.13A18.27,18.27,0,0,0,430,35.81c.74-1,1.62-2.33,2.62-3.94s2-3,2.86-4.25,1.71-2.28,2.47-3.16a6.61,6.61,0,0,1,4.95-2.6,2.09,2.09,0,0,1,1.15.32,2.86,2.86,0,0,1,.86.87,5.93,5.93,0,0,1,.62,1.29,13.28,13.28,0,0,1,.41,1.54c.22,1,.41,2.26.57,3.67s.31,2.76.44,4.07a12,12,0,0,0,.55,2.86c.23.63.41.94.52.94s.45-.18.75-.53a10.32,10.32,0,0,0,.95-1.37c.34-.55.69-1.17,1-1.84s.69-1.34,1-2,.59-1.24.85-1.77.45-1,.6-1.22a29.16,29.16,0,0,1,1.85-3.2,12,12,0,0,1,1.77-2.12,6,6,0,0,1,1.81-1.17,5,5,0,0,1,1.93-.37,2.89,2.89,0,0,1,1.6.41,3.65,3.65,0,0,1,1.09,1.09,8.44,8.44,0,0,1,.78,1.53c.22.57.44,1.15.65,1.75a10.67,10.67,0,0,1,.43,1.82c.12.74.23,1.49.33,2.24s.19,1.46.28,2.12a8.8,8.8,0,0,0,.3,1.45,19,19,0,0,0,.76,1.89,6.7,6.7,0,0,0,.87,1.43,3.83,3.83,0,0,0,1.07.92,2.64,2.64,0,0,0,1.32.33,6.31,6.31,0,0,0,4-1.63,25,25,0,0,0,4.36-5,.69.69,0,0,1,.61-.32C479.29,31.82,479.43,32.05,479.43,32.53Z"/><path class="cls-1" d="M484.59.25v.9h-1.74V5.69h-1.08V1.15H480V.25Zm5.88,5.44-.2-3.2c0-.42,0-.94,0-1.52h-.06c-.14.48-.3,1.12-.46,1.62l-1,3h-1.12l-1-3.1c-.1-.42-.26-1.06-.38-1.54h-.06c0,.5,0,1,0,1.52l-.2,3.2h-1l.4-5.44h1.62l.94,2.66c.12.42.22.82.36,1.38h0c.14-.5.26-1,.38-1.36l.94-2.68h1.56l.42,5.44Z"/></g></g></svg>